<svg xmlns:inkscape="http://www.inkscape.org/namespaces/inkscape" xmlns:sodipodi="http://sodipodi.sourceforge.net/DTD/sodipodi-0.dtd" xmlns="http://www.w3.org/2000/svg" xmlns:svg="http://www.w3.org/2000/svg" viewBox="0 0 250.30001 107.9" version="1.1" id="svg37" sodipodi:docname="MaRDI_Logo_S_5_rgb.svg" inkscape:version="1.1.1 (3bf5ae0d25, 2021-09-20)" viewport="0 0 400px 171px">
  <defs id="defs41"/>
  <sodipodi:namedview id="namedview39" pagecolor="#ffffff" bordercolor="#666666" borderopacity="1.0" inkscape:pageshadow="2" inkscape:pageopacity="0.0" inkscape:pagecheckerboard="0" showgrid="false" inkscape:zoom="2.1995465" inkscape:cx="-76.6067" inkscape:cy="-5.0010309" inkscape:window-width="2560" inkscape:window-height="1355" inkscape:window-x="0" inkscape:window-y="0" inkscape:window-maximized="1" inkscape:current-layer="svg37" fit-margin-top="10" fit-margin-left="10" fit-margin-right="10" fit-margin-bottom="10" lock-margins="false"/>
  <g id="b8d78592-1ffa-40c6-a043-efc885e76087" data-name="Typography" transform="translate(-67.899998,-121.8)">
    <g id="g34">
      <polyline points="99.2 198.4 148.8 148.8 198.4 198.4 248 148.8 297.6 198.4" fill="none" stroke="#1c1c1b" stroke-width="1.5" id="polyline2"/>
      <g id="g8">
        <circle cx="297.60001" cy="198.39999" r="10.6" fill="#eb6621" id="circle4"/>
        <path d="m 299.4,193 v 10.7 h -3.5 V 193 Z" fill="#ffffff" id="path6"/>
      </g>
      <g id="g14">
        <circle cx="248" cy="148.8" r="17" fill="#eb6621" id="circle10"/>
        <path d="m 248.5,140.2 a 10.6,10.6 0 0 1 3.1,0.5 7.5,7.5 0 0 1 4.1,4.2 14,14 0 0 1 0.5,3.8 12.2,12.2 0 0 1 -0.4,3.4 8.4,8.4 0 0 1 -1.5,2.8 7.6,7.6 0 0 1 -2.4,1.8 9,9 0 0 1 -3.4,0.6 h -7.4 v -17.1 z m -0.3,14 a 4.5,4.5 0 0 0 1.6,-0.3 4.2,4.2 0 0 0 1.4,-0.9 3.5,3.5 0 0 0 0.9,-1.6 5.5,5.5 0 0 0 0.4,-2.4 8.5,8.5 0 0 0 -0.3,-2.3 3.7,3.7 0 0 0 -0.8,-1.8 3.3,3.3 0 0 0 -1.5,-1.1 5.7,5.7 0 0 0 -2.4,-0.4 h -2.7 v 10.8 z" fill="#ffffff" id="path12"/>
      </g>
      <g id="g20">
        <circle cx="198.39999" cy="198.39999" r="21.299999" fill="#eb6621" id="circle16"/>
        <path d="m 190.5,187.6 h 10.2 c 2.4,0 4.2,0.5 5.3,1.6 a 5.2,5.2 0 0 1 1.8,4.2 6.8,6.8 0 0 1 -0.4,2.6 6.4,6.4 0 0 1 -1.1,1.6 4.7,4.7 0 0 1 -1.2,0.9 l -0.8,0.3 v 0 l 1,0.3 a 1.9,1.9 0 0 1 1,0.8 2.9,2.9 0 0 1 0.8,1.3 4.6,4.6 0 0 1 0.4,2.1 c 0,1.3 0.1,2.4 0.2,3.5 a 5,5 0 0 0 0.9,2.2 h -4 a 4.3,4.3 0 0 1 -0.5,-1.6 c 0,-0.5 -0.1,-1.1 -0.1,-1.6 a 18.5,18.5 0 0 0 -0.1,-2.5 7.5,7.5 0 0 0 -0.7,-1.8 2.6,2.6 0 0 0 -1.3,-1 4.6,4.6 0 0 0 -2.1,-0.4 h -5.5 v 8.9 h -3.8 z m 3.8,9.8 h 6.1 a 3.7,3.7 0 0 0 2.7,-0.9 2.9,2.9 0 0 0 1,-2.5 4,4 0 0 0 -0.3,-1.7 2.2,2.2 0 0 0 -0.9,-1 3.3,3.3 0 0 0 -1.2,-0.5 h -7.4 z" fill="#ffffff" id="path18"/>
      </g>
      <g id="g26">
        <circle cx="99.199997" cy="198.39999" r="21.299999" fill="#005ead" id="circle22"/>
        <path d="m 89,187.6 h 1.9 l 8.3,20 h 0.1 l 8.3,-20 h 1.9 v 21.5 h -1.4 v -19.8 0 l -8.2,19.8 h -1.3 l -8.3,-19.8 v 0 19.8 H 89 Z" fill="#ffffff" id="path24"/>
      </g>
      <g id="g32">
        <circle cx="148.8" cy="148.8" r="10.6" fill="#005ead" id="circle28"/>
        <path d="m 145,145.1 a 3.1,3.1 0 0 1 0.9,-1.1 2.6,2.6 0 0 1 1.3,-0.6 l 1.7,-0.2 h 1.4 a 3.3,3.3 0 0 1 1.2,0.5 3.6,3.6 0 0 1 1,1.1 4,4 0 0 1 0.3,1.7 v 5.7 c 0,0.5 0.3,0.7 0.8,0.7 h 0.4 v 1.1 h -1.7 a 0.8,0.8 0 0 1 -0.4,-0.4 0.8,0.8 0 0 1 -0.2,-0.6 1.5,1.5 0 0 1 -0.1,-0.7 v 0 l -0.7,0.9 -0.8,0.7 -1.1,0.4 h -1.3 a 3.2,3.2 0 0 1 -1.4,-0.2 l -1.1,-0.5 a 2.5,2.5 0 0 1 -0.8,-1 2.9,2.9 0 0 1 -0.3,-1.4 2.9,2.9 0 0 1 0.5,-1.7 3.2,3.2 0 0 1 1.3,-1 l 1.9,-0.4 2,-0.3 h 0.8 l 0.5,-0.2 0.3,-0.4 a 1.5,1.5 0 0 0 0.1,-0.7 3.1,3.1 0 0 0 -0.2,-1.1 l -0.6,-0.7 -0.9,-0.3 h -1.1 a 3.2,3.2 0 0 0 -2,0.6 2.3,2.3 0 0 0 -0.8,1.9 h -1.3 a 4.3,4.3 0 0 1 0.4,-1.8 z m 6.5,3.2 a 0.5,0.5 0 0 1 -0.5,0.3 l -0.6,0.2 -1.7,0.3 a 4.1,4.1 0 0 0 -1.6,0.3 3.4,3.4 0 0 0 -1.2,0.6 1.7,1.7 0 0 0 -0.5,1.2 2,2 0 0 0 0.2,0.9 l 0.5,0.7 0.8,0.4 0.9,0.2 a 3.2,3.2 0 0 0 1.4,-0.3 2.3,2.3 0 0 0 1.2,-0.6 4.4,4.4 0 0 0 0.8,-1.1 3.2,3.2 0 0 0 0.3,-1.4 z" fill="#ffffff" id="path30"/>
      </g>
    </g>
  </g>
</svg>