<svg xmlns="http://www.w3.org/2000/svg" viewBox="0 0 396.9 396.9">
  <g id="b8d78592-1ffa-40c6-a043-efc885e76087" data-name="Typography">
    <g>
      <polyline points="99.2 198.4 148.8 148.8 198.4 198.4 248 148.8 297.6 198.4" fill="none" stroke="#1c1c1b" stroke-width="1.5"/>
      <g>
        <circle cx="297.6" cy="198.4" r="10.6" fill="#eb6621"/>
        <path d="M299.4,193v10.7h-3.5V193Z" fill="#fff"/>
      </g>
      <g>
        <circle cx="248" cy="148.8" r="17" fill="#eb6621"/>
        <path d="M248.5,140.2a10.6,10.6,0,0,1,3.1.5,7.5,7.5,0,0,1,4.1,4.2,14,14,0,0,1,.5,3.8,12.2,12.2,0,0,1-.4,3.4,8.4,8.4,0,0,1-1.5,2.8,7.6,7.6,0,0,1-2.4,1.8,9,9,0,0,1-3.4.6h-7.4V140.2Zm-.3,14a4.5,4.5,0,0,0,1.6-.3,4.2,4.2,0,0,0,1.4-.9,3.5,3.5,0,0,0,.9-1.6,5.5,5.5,0,0,0,.4-2.4,8.5,8.5,0,0,0-.3-2.3,3.7,3.7,0,0,0-.8-1.8,3.3,3.3,0,0,0-1.5-1.1,5.7,5.7,0,0,0-2.4-.4h-2.7v10.8Z" fill="#fff"/>
      </g>
      <g>
        <circle cx="198.4" cy="198.4" r="21.3" fill="#eb6621"/>
        <path d="M190.5,187.6h10.2c2.4,0,4.2.5,5.3,1.6a5.2,5.2,0,0,1,1.8,4.2,6.8,6.8,0,0,1-.4,2.6,6.4,6.4,0,0,1-1.1,1.6,4.7,4.7,0,0,1-1.2.9l-.8.3h0l1,.3a1.9,1.9,0,0,1,1,.8,2.9,2.9,0,0,1,.8,1.3,4.6,4.6,0,0,1,.4,2.1c0,1.3.1,2.4.2,3.5a5,5,0,0,0,.9,2.2h-4a4.3,4.3,0,0,1-.5-1.6c0-.5-.1-1.1-.1-1.6a18.5,18.5,0,0,0-.1-2.5,7.5,7.5,0,0,0-.7-1.8,2.6,2.6,0,0,0-1.3-1,4.6,4.6,0,0,0-2.1-.4h-5.5v8.9h-3.8Zm3.8,9.8h6.1a3.7,3.7,0,0,0,2.7-.9,2.9,2.9,0,0,0,1-2.5,4,4,0,0,0-.3-1.7,2.2,2.2,0,0,0-.9-1,3.3,3.3,0,0,0-1.2-.5h-7.4Z" fill="#fff"/>
      </g>
      <g>
        <circle cx="99.2" cy="198.4" r="21.3" fill="#005ead"/>
        <path d="M89,187.6h1.9l8.3,20h.1l8.3-20h1.9v21.5h-1.4V189.3h0l-8.2,19.8H98.6l-8.3-19.8h0v19.8H89Z" fill="#fff"/>
      </g>
      <g>
        <circle cx="148.8" cy="148.8" r="10.6" fill="#005ead"/>
        <path d="M145,145.1a3.1,3.1,0,0,1,.9-1.1,2.6,2.6,0,0,1,1.3-.6l1.7-.2h1.4a3.3,3.3,0,0,1,1.2.5,3.6,3.6,0,0,1,1,1.1,4,4,0,0,1,.3,1.7v5.7c0,.5.3.7.8.7h.4v1.1h-1.7a.8.8,0,0,1-.4-.4.8.8,0,0,1-.2-.6,1.5,1.5,0,0,1-.1-.7h0l-.7.9-.8.7-1.1.4h-1.3a3.2,3.2,0,0,1-1.4-.2l-1.1-.5a2.5,2.5,0,0,1-.8-1,2.9,2.9,0,0,1-.3-1.4,2.9,2.9,0,0,1,.5-1.7,3.2,3.2,0,0,1,1.3-1l1.9-.4,2-.3h.8l.5-.2.3-.4a1.5,1.5,0,0,0,.1-.7,3.1,3.1,0,0,0-.2-1.1l-.6-.7-.9-.3h-1.1a3.2,3.2,0,0,0-2,.6,2.3,2.3,0,0,0-.8,1.9h-1.3A4.3,4.3,0,0,1,145,145.1Zm6.5,3.2a.5.5,0,0,1-.5.3l-.6.2-1.7.3a4.1,4.1,0,0,0-1.6.3,3.4,3.4,0,0,0-1.2.6,1.7,1.7,0,0,0-.5,1.2,2,2,0,0,0,.2.9l.5.7.8.4.9.2a3.2,3.2,0,0,0,1.4-.3,2.3,2.3,0,0,0,1.2-.6,4.4,4.4,0,0,0,.8-1.1,3.2,3.2,0,0,0,.3-1.4v-1.7Z" fill="#fff"/>
      </g>
    </g>
  </g>
</svg>
